HIERARCHY
ROOT joint_Root
{
	OFFSET 0.0 0.0 0.0
	CHANNELS 6 Xposition Yposition Zposition Zrotation Xrotation Yrotation 
	JOINT Hips
	{
		OFFSET 4.5925 91.4895 -427.239
		CHANNELS 6 Xposition Yposition Zposition Zrotation Xrotation Yrotation 
		JOINT Spine
		{
			OFFSET 15.7357 0.0 0.0
			CHANNELS 6 Xposition Yposition Zposition Zrotation Xrotation Yrotation 
			JOINT Chest
			{
				OFFSET 8.98455 -0.406207 0.0
				CHANNELS 6 Xposition Yposition Zposition Zrotation Xrotation Yrotation 
				JOINT Neck
				{
					OFFSET 16.3773 0.0 0.0
					CHANNELS 6 Xposition Yposition Zposition Zrotation Xrotation Yrotation 
					JOINT Head
					{
						OFFSET 6.45672 0.0 0.0
						CHANNELS 6 Xposition Yposition Zposition Zrotation Xrotation Yrotation 
						End Site
						{
							OFFSET 0.0 0.0 0.0
						}
					}
				}
				JOINT Shoulder_L
				{
					OFFSET 12.9942 -0.242716 4.98039
					CHANNELS 6 Xposition Yposition Zposition Zrotation Xrotation Yrotation 
					JOINT UpperArm_L
					{
						OFFSET 5.34809 0.0 0.0
						CHANNELS 6 Xposition Yposition Zposition Zrotation Xrotation Yrotation 
						JOINT LowerArm_L
						{
							OFFSET 24.3286 1.87007e-05 0.0
							CHANNELS 6 Xposition Yposition Zposition Zrotation Xrotation Yrotation 
							JOINT Hand_L
							{
								OFFSET 22.2916 0.0 0.0
								CHANNELS 6 Xposition Yposition Zposition Zrotation Xrotation Yrotation 
								End Site
								{
									OFFSET 0.0 0.0 0.0
								}
							}
						}
					}
				}
				JOINT Shoulder_R
				{
					OFFSET 12.9945 -0.242716 -4.98039
					CHANNELS 6 Xposition Yposition Zposition Zrotation Xrotation Yrotation 
					JOINT UpperArm_R
					{
						OFFSET -5.34813 0.0 0.0
						CHANNELS 6 Xposition Yposition Zposition Zrotation Xrotation Yrotation 
						JOINT LowerArm_R
						{
							OFFSET -24.3289 0.000322201 0.0
							CHANNELS 6 Xposition Yposition Zposition Zrotation Xrotation Yrotation 
							JOINT Hand_R
							{
								OFFSET -22.2915 -0.000108084 0.0
								CHANNELS 6 Xposition Yposition Zposition Zrotation Xrotation Yrotation 
								End Site
								{
									OFFSET 0.0 0.0 0.0
								}
							}
						}
					}
				}
			}
		}
		JOINT UpperLeg_L
		{
			OFFSET -2.19248 -6.46944 0.0
			CHANNELS 6 Xposition Yposition Zposition Zrotation Xrotation Yrotation 
			JOINT LowerLeg_L
			{
				OFFSET 39.0811 0.0 -1.23785e-05
				CHANNELS 6 Xposition Yposition Zposition Zrotation Xrotation Yrotation 
				JOINT Foot_L
				{
					OFFSET 40.9854 0.0 -1.26872e-05
					CHANNELS 6 Xposition Yposition Zposition Zrotation Xrotation Yrotation 
					JOINT Toes_L
					{
						OFFSET 11.7543 0.0 0.0
						CHANNELS 6 Xposition Yposition Zposition Zrotation Xrotation Yrotation 
						End Site
						{
							OFFSET 0.0 0.0 0.0
						}
					}
				}
			}
		}
		JOINT UpperLeg_R
		{
			OFFSET -2.19251 6.46944 0.0
			CHANNELS 6 Xposition Yposition Zposition Zrotation Xrotation Yrotation 
			JOINT LowerLeg_R
			{
				OFFSET -39.0811 -0.00228153 -0.0401928
				CHANNELS 6 Xposition Yposition Zposition Zrotation Xrotation Yrotation 
				JOINT Foot_R
				{
					OFFSET -40.9854 0.0 0.0
					CHANNELS 6 Xposition Yposition Zposition Zrotation Xrotation Yrotation 
					JOINT Toes_R
					{
						OFFSET -11.7543 0.0 0.0
						CHANNELS 6 Xposition Yposition Zposition Zrotation Xrotation Yrotation 
						End Site
						{
							OFFSET 0.0 0.0 0.0
						}
					}
				}
			}
		}
	}
}
MOTION
Frames:	8
Frame Time:	0.0333333
0.000000 0.000000 0.000000 0.000000 0.000000 -0.000000 2.973090 91.670100 -0.897527 89.744900 -8.109620 2.784820 15.735700 0.000005 -0.000001 78.371100 85.054100 -75.380200 8.984550 -0.406207 -0.000000 1.987030 -2.143280 6.013830 16.377300 -0.000001 -0.000001 2.157210 -0.649463 -1.316680 6.456720 -0.000001 -0.000000 -4.392580 -1.837150 2.662360 12.994200 -0.242716 4.980390 -84.471400 -11.329600 -63.770300 5.348090 -0.000007 -0.000001 -29.881400 -64.212500 -67.618300 24.328600 0.000019 0.000005 11.927800 9.379330 -52.347800 22.291600 -0.000001 0.000005 26.458800 5.327520 -0.713365 12.994500 -0.242716 -4.980390 87.704000 9.312810 -76.084500 -5.348130 -0.000001 -0.000004 -59.900600 18.143400 -6.403260 -24.328900 0.000322 -0.000009 -0.401119 -0.848294 -25.249100 -22.291500 -0.000108 -0.000004 16.709100 5.428200 -3.877330 -2.192480 -6.469440 -0.000000 -178.300000 -17.381300 -4.891300 39.081100 -0.000007 -0.000012 -0.124711 0.257442 25.846800 40.985400 -0.000006 -0.000013 1.788530 4.283310 -68.357200 11.754300 -0.000000 0.000003 -0.000159 -0.001524 -16.635400 -2.192510 6.469440 -0.000001 174.083000 19.733900 174.627000 -39.081100 -0.002282 -0.040193 -0.147225 0.320537 25.156700 -40.985400 0.000008 0.000006 1.458450 19.539800 -66.662100 -11.754300 -0.000006 -0.000006 -0.000809 -0.012655 -17.087900
0.000000 0.000000 0.000000 0.000000 0.000000 -0.000000 2.781730 91.669400 -0.943108 89.723000 -7.592460 2.822200 15.735700 0.000005 -0.000001 78.964100 84.986500 -76.170000 8.984550 -0.406207 -0.000000 2.133180 -2.055290 5.621700 16.377300 -0.000001 -0.000001 1.999880 -0.909776 -1.120080 6.456720 -0.000001 -0.000000 -4.394420 -2.041580 2.658960 12.994200 -0.242716 4.980390 -85.014100 -10.390700 -64.187200 5.348090 -0.000007 -0.000001 -28.768600 -61.861200 -63.468200 24.328600 0.000019 0.000005 13.072700 7.842740 -59.559600 22.291600 -0.000001 0.000005 26.514100 5.326080 -0.671370 12.994500 -0.242716 -4.980390 87.687100 9.343560 -76.029900 -5.348130 -0.000001 -0.000004 -60.263100 19.072300 -6.786450 -24.328900 0.000322 -0.000009 -0.391849 -0.843943 -24.846900 -22.291500 -0.000108 -0.000004 16.729200 5.427440 -3.851230 -2.192480 -6.469440 -0.000000 -178.147000 -17.039700 -4.961150 39.081100 -0.000007 -0.000012 -0.124944 0.256951 25.931700 40.985400 -0.000006 -0.000013 1.702920 4.466050 -68.308000 11.754300 -0.000000 0.000003 -0.000155 -0.001497 -16.634400 -2.192510 6.469440 -0.000001 174.214000 20.047500 174.721000 -39.081100 -0.002282 -0.040193 -0.146634 0.318535 25.208200 -40.985400 0.000008 0.000006 1.569550 19.281700 -66.762900 -11.754300 -0.000006 -0.000006 -0.000783 -0.012272 -17.072300
0.000000 0.000000 0.000000 0.000000 0.000000 -0.000000 2.570740 91.659700 -0.976385 89.687300 -7.074520 2.887020 15.735700 0.000005 -0.000001 79.723000 84.929100 -77.127900 8.984550 -0.406207 -0.000000 2.263210 -1.932520 5.223800 16.377300 -0.000001 -0.000001 1.843740 -1.141490 -0.959234 6.456720 -0.000001 -0.000000 -4.376060 -2.306980 2.756220 12.994200 -0.242716 4.980390 -85.587100 -9.526770 -65.002000 5.348090 -0.000007 -0.000001 -27.524400 -59.019500 -58.140900 24.328600 0.000019 0.000005 14.346900 5.959340 -67.904100 22.291600 -0.000001 0.000005 25.625600 5.318820 -0.462335 12.994500 -0.242716 -4.980390 87.655700 9.414580 -75.949000 -5.348130 -0.000001 -0.000004 -60.533200 20.072000 -7.069850 -24.328900 0.000322 -0.000009 -0.334111 -0.730359 -24.511300 -22.291500 -0.000108 -0.000004 16.657500 5.424810 -3.761500 -2.192480 -6.469440 -0.000000 -177.924000 -16.811400 -5.003320 39.081100 -0.000007 -0.000012 -0.129804 0.265350 26.067100 40.985400 -0.000006 -0.000013 1.636370 4.814900 -68.300500 11.754300 -0.000000 0.000003 -0.000159 -0.001527 -16.635500 -2.192510 6.469440 -0.000001 174.336000 20.424100 174.847000 -39.081100 -0.002282 -0.040193 -0.148631 0.321524 25.294200 -40.985400 0.000008 0.000006 1.712860 19.113500 -66.903800 -11.754300 -0.000006 -0.000006 -0.000751 -0.011810 -17.053500
0.000000 0.000000 0.000000 0.000000 0.000000 -0.000000 2.359350 91.658500 -1.003400 89.590400 -6.628030 2.899440 15.735700 0.000005 -0.000001 80.337100 84.884300 -77.908600 8.984550 -0.406207 -0.000000 2.364700 -1.830390 4.890200 16.377300 -0.000001 -0.000001 1.701760 -1.403010 -0.733341 6.456720 -0.000001 -0.000000 -4.351970 -2.520330 2.699630 12.994200 -0.242716 4.980390 -86.212600 -8.484060 -65.834600 5.348090 -0.000007 -0.000001 -26.780400 -55.403600 -52.587000 24.328600 0.000019 0.000005 15.907600 3.898860 -76.575800 22.291600 -0.000001 0.000005 24.624500 5.316420 -0.393012 12.994500 -0.242716 -4.980390 87.632300 9.486360 -75.916700 -5.348130 -0.000001 -0.000004 -60.767000 20.940300 -7.329740 -24.328900 0.000322 -0.000009 -0.203872 -0.451490 -24.190000 -22.291500 -0.000108 -0.000004 16.633900 5.424140 -3.738860 -2.192480 -6.469440 -0.000000 -177.693000 -16.529000 -5.101950 39.081100 -0.000007 -0.000012 -0.127358 0.258918 26.192000 40.985400 -0.000006 -0.000013 1.542990 4.993280 -68.279800 11.754300 -0.000000 0.000003 -0.000156 -0.001503 -16.634600 -2.192510 6.469440 -0.000001 174.549000 20.792400 174.950000 -39.081100 -0.002282 -0.040193 -0.144884 0.313543 25.297900 -40.985400 0.000008 0.000006 1.904490 18.989200 -67.012000 -11.754300 -0.000006 -0.000006 -0.000819 -0.012799 -17.093700
0.000000 0.000000 0.000000 0.000000 0.000000 -0.000000 2.174730 91.647700 -1.008800 89.530900 -6.331090 2.884780 15.735700 0.000005 -0.000001 81.296000 84.859800 -79.051700 8.984550 -0.406207 -0.000000 2.433380 -1.658850 4.519630 16.377300 -0.000001 -0.000001 1.505300 -1.640860 -0.464213 6.456720 -0.000001 -0.000000 -4.363250 -2.653820 2.685580 12.994200 -0.242716 4.980390 -86.883500 -7.173740 -66.443300 5.348090 -0.000007 -0.000001 -26.820000 -50.683800 -47.669600 24.328600 0.000019 0.000005 17.828100 1.778320 -84.484000 22.291600 -0.000001 0.000005 23.545300 5.315250 -0.359906 12.994500 -0.242716 -4.980390 87.600200 9.558700 -75.835800 -5.348130 -0.000001 -0.000004 -61.025100 21.720100 -7.535010 -24.328900 0.000322 -0.000009 -0.238702 -0.535531 -23.929900 -22.291500 -0.000108 -0.000004 16.562800 5.422620 -3.687480 -2.192480 -6.469440 -0.000000 -177.511000 -16.268800 -5.205000 39.081100 -0.000007 -0.000012 -0.131748 0.266311 26.322500 40.985400 -0.000006 -0.000013 1.425450 5.059600 -68.290100 11.754300 -0.000000 0.000003 -0.000166 -0.001579 -16.637400 -2.192510 6.469440 -0.000001 174.712000 21.029700 174.983000 -39.081100 -0.002282 -0.040193 -0.147605 0.318528 25.351400 -40.985400 0.000008 0.000006 1.998210 18.872700 -67.112400 -11.754300 -0.000006 -0.000006 -0.000789 -0.012370 -17.076300
0.000000 0.000000 0.000000 0.000000 0.000000 -0.000000 2.012110 91.652200 -1.005320 89.485500 -6.134510 2.828970 15.735700 0.000005 -0.000001 82.578900 84.867400 -80.510900 8.984550 -0.406207 -0.000000 2.442920 -1.420810 4.162230 16.377300 -0.000001 -0.000001 1.483280 -1.860380 -0.138519 6.456720 -0.000001 -0.000000 -4.644990 -2.687510 2.439760 12.994200 -0.242716 4.980390 -87.627700 -5.607020 -67.023000 5.348090 -0.000007 -0.000001 -26.998500 -44.619200 -42.665600 24.328600 0.000019 0.000005 18.413500 -0.344530 -91.035800 22.291600 -0.000001 0.000005 22.584400 5.320230 -0.503544 12.994500 -0.242716 -4.980390 87.560100 9.635540 -75.717500 -5.348130 -0.000001 -0.000004 -61.304100 22.342400 -7.678420 -24.328900 0.000322 -0.000009 -0.215554 -0.490346 -23.625600 -22.291500 -0.000108 -0.000004 16.450500 5.421340 -3.644070 -2.192480 -6.469440 -0.000000 -177.371000 -16.029600 -5.271510 39.081100 -0.000007 -0.000012 -0.135726 0.274251 26.330700 40.985400 -0.000006 -0.000013 1.313300 5.098550 -68.262500 11.754300 -0.000000 0.000003 -0.000156 -0.001500 -16.634500 -2.192510 6.469440 -0.000001 174.899000 21.154600 174.978000 -39.081100 -0.002282 -0.040193 -0.140905 0.304321 25.356200 -40.985400 0.000008 0.000006 2.241390 18.724700 -67.238500 -11.754300 -0.000006 -0.000006 -0.000791 -0.012396 -17.077300
0.000000 0.000000 0.000000 0.000000 0.000000 -0.000000 1.894430 91.659100 -0.995005 89.419200 -6.060700 2.692240 15.735700 0.000005 -0.000001 83.910800 84.892000 -81.994100 8.984550 -0.406207 -0.000000 2.415330 -1.172260 3.854340 16.377300 -0.000001 -0.000001 1.503540 -1.951940 0.169266 6.456720 -0.000001 -0.000000 -5.122870 -2.649820 2.091040 12.994200 -0.242716 4.980390 -88.338700 -3.999540 -67.421600 5.348090 -0.000007 -0.000001 -27.893800 -37.071500 -37.818100 24.328600 0.000019 0.000005 18.101700 -1.849030 -95.637600 22.291600 -0.000001 0.000005 21.719900 5.327650 -0.719721 12.994500 -0.242716 -4.980390 87.508100 9.707820 -75.528600 -5.348130 -0.000001 -0.000004 -61.467800 23.108400 -7.998510 -24.328900 0.000322 -0.000009 -0.179665 -0.415979 -23.236700 -22.291500 -0.000108 -0.000004 16.333800 5.419090 -3.568420 -2.192480 -6.469440 -0.000000 -177.263000 -15.924600 -5.410260 39.081100 -0.000007 -0.000012 -0.135452 0.273654 26.334500 40.985400 -0.000006 -0.000013 1.223910 5.096200 -68.243300 11.754300 -0.000000 0.000003 -0.000157 -0.001508 -16.634800 -2.192510 6.469440 -0.000001 175.090000 21.274400 174.901000 -39.081100 -0.002282 -0.040193 -0.138829 0.300741 25.297100 -40.985400 0.000008 0.000006 2.372610 18.721900 -67.278100 -11.754300 -0.000006 -0.000006 -0.000818 -0.012781 -17.093000
0.000000 0.000000 0.000000 0.000000 0.000000 -0.000000 1.775400 91.648000 -0.935463 89.349900 -5.871780 2.669650 15.735700 0.000005 -0.000001 84.935800 84.888200 -83.160100 8.984550 -0.406207 -0.000000 2.435620 -0.984274 3.568750 16.377300 -0.000001 -0.000001 1.604820 -2.118930 0.439568 6.456720 -0.000001 -0.000000 -5.610980 -2.548870 1.786880 12.994200 -0.242716 4.980390 -88.950800 -2.612570 -68.112000 5.348090 -0.000007 -0.000001 -29.682800 -28.790000 -32.908600 24.328600 0.000019 0.000005 18.018800 -2.527160 -97.719200 22.291600 -0.000001 0.000005 19.926400 5.349360 -1.355630 12.994500 -0.242716 -4.980390 87.467500 9.722790 -75.324000 -5.348130 -0.000001 -0.000004 -61.731100 23.687900 -8.158710 -24.328900 0.000322 -0.000009 -0.128666 -0.299608 -23.069200 -22.291500 -0.000108 -0.000004 16.132900 5.416860 -3.493560 -2.192480 -6.469440 -0.000000 -177.112000 -15.822000 -5.442720 39.081100 -0.000007 -0.000012 -0.136835 0.275322 26.427400 40.985400 -0.000006 -0.000013 1.161620 5.173740 -68.304000 11.754300 -0.000000 0.000003 -0.000164 -0.001566 -16.636900 -2.192510 6.469440 -0.000001 175.188000 21.513800 174.988000 -39.081100 -0.002282 -0.040193 -0.143550 0.311038 25.275200 -40.985400 0.000008 0.000006 2.336430 18.749500 -67.321900 -11.754300 -0.000006 -0.000006 -0.000793 -0.012422 -17.078400
